<?xml version="1.0" standalone="no"?>
<!DOCTYPE svg PUBLIC "-//W3C//DTD SVG 20010904//EN"
 "http://www.w3.org/TR/2001/REC-SVG-20010904/DTD/svg10.dtd">
<svg version="1.0" xmlns="http://www.w3.org/2000/svg"
 width="1250.000000pt" height="1250.000000pt" viewBox="0 0 1250.000000 1250.000000"
 preserveAspectRatio="xMidYMid meet">
<metadata>
Created by potrace 1.11, written by Peter Selinger 2001-2013
</metadata>
<g transform="translate(0.000000,1250.000000) scale(0.100000,-0.100000)"
fill="#000000" stroke="none">
<path d="M7885 12170 c-1 -3 -3 -943 -3 -2090 0 -1147 -1 -2089 -1 -2094 -1
-5 -56 45 -123 110 -220 213 -388 335 -646 471 -230 120 -452 195 -732 248
-14 3 -36 7 -50 10 -14 2 -51 7 -83 10 -32 4 -66 8 -76 10 -125 24 -628 24
-783 0 -13 -2 -45 -6 -73 -10 -99 -13 -122 -17 -230 -40 -227 -49 -431 -119
-630 -216 -157 -76 -205 -104 -355 -204 -593 -396 -1037 -1009 -1312 -1815
-22 -63 -41 -122 -43 -130 -2 -8 -20 -71 -40 -140 -19 -69 -37 -134 -39 -145
-2 -11 -18 -81 -34 -155 -17 -74 -33 -153 -36 -175 -4 -23 -8 -50 -10 -60 -6
-33 -16 -98 -20 -130 -3 -16 -7 -43 -9 -60 -3 -16 -9 -59 -12 -95 -4 -36 -8
-72 -10 -80 -1 -8 -6 -55 -10 -105 -4 -49 -8 -102 -10 -117 -22 -180 -22
-1006 0 -1185 2 -15 6 -62 10 -103 3 -41 8 -86 10 -100 2 -14 6 -47 10 -75 12
-103 16 -133 35 -245 28 -165 30 -173 36 -189 2 -8 7 -30 10 -50 8 -49 77
-320 104 -406 354 -1126 970 -1881 1860 -2278 132 -59 368 -134 505 -162 245
-49 399 -65 635 -67 145 -1 367 8 421 17 13 2 47 6 74 10 82 10 116 16 195 32
41 8 84 17 94 19 101 20 318 89 436 139 363 154 701 401 960 704 l55 63 6 -53
c11 -92 19 -172 24 -222 3 -26 7 -60 9 -75 2 -15 7 -58 11 -97 3 -38 8 -81 10
-95 2 -14 6 -56 10 -93 3 -37 8 -77 10 -88 2 -11 5 -41 6 -65 l3 -44 830 2
831 3 0 5853 c0 3218 -2 5853 -5 5853 -17 4 -1822 3 -1825 -1z m-1375 -4814
c159 -22 248 -42 383 -86 263 -88 505 -251 702 -474 39 -43 75 -84 80 -90 25
-28 132 -189 173 -261 l35 -60 0 -1792 0 -1792 -48 -83 c-122 -211 -271 -390
-445 -534 -224 -186 -402 -271 -715 -340 -11 -3 -40 -7 -65 -10 -25 -3 -52 -8
-60 -10 -66 -22 -554 -22 -621 0 -8 3 -33 7 -56 10 -23 3 -79 15 -125 26 -404
101 -754 367 -995 755 -206 333 -346 784 -398 1285 -3 30 -8 72 -10 93 -27
231 -27 867 0 1142 10 107 23 217 30 255 3 14 7 41 10 60 3 19 8 46 10 60 3
14 7 36 10 50 15 81 29 144 47 215 11 44 21 85 22 90 9 43 66 210 103 305 281
708 790 1127 1443 1186 36 4 67 8 68 9 6 5 374 -3 422 -9z"/>
</g>
</svg>
